<svg width="189" height="95" viewBox="0 0 189 95" fill="none" xmlns="http://www.w3.org/2000/svg">
<path d="M110.885 77.01H110.03V77.1L110.21 81H108.2L108.38 77.355L108.2 70.65H111.455C112.415 70.65 113.18 70.91 113.75 71.43C114.32 71.95 114.605 72.64 114.605 73.5C114.605 74.15 114.435 74.745 114.095 75.285C113.765 75.815 113.315 76.235 112.745 76.545L115.355 80.235L113.54 81.165L111.2 76.995C111.13 77.005 111.025 77.01 110.885 77.01ZM110.915 72.165H110.18L110.075 75.555H111.095C111.595 75.555 111.98 75.39 112.25 75.06C112.53 74.73 112.67 74.26 112.67 73.65C112.67 72.66 112.085 72.165 110.915 72.165ZM117.052 78.015C117.902 78.865 118.752 79.29 119.602 79.29C120.042 79.29 120.392 79.19 120.652 78.99C120.922 78.78 121.057 78.515 121.057 78.195C121.057 77.865 120.897 77.59 120.577 77.37C120.257 77.14 119.867 76.94 119.407 76.77C118.957 76.6 118.507 76.41 118.057 76.2C117.607 75.98 117.222 75.67 116.902 75.27C116.582 74.87 116.422 74.385 116.422 73.815C116.422 72.915 116.797 72.14 117.547 71.49C118.297 70.83 119.187 70.5 120.217 70.5C120.687 70.5 121.142 70.55 121.582 70.65C122.022 70.75 122.447 70.895 122.857 71.085L121.837 73.275C121.557 73.055 121.172 72.855 120.682 72.675C120.202 72.485 119.777 72.39 119.407 72.39C119.047 72.39 118.752 72.48 118.522 72.66C118.302 72.83 118.192 73.06 118.192 73.35C118.192 73.64 118.352 73.9 118.672 74.13C118.992 74.35 119.377 74.545 119.827 74.715C120.287 74.885 120.742 75.075 121.192 75.285C121.652 75.485 122.042 75.785 122.362 76.185C122.682 76.585 122.842 77.07 122.842 77.64C122.842 78.58 122.467 79.405 121.717 80.115C120.967 80.815 120.092 81.165 119.092 81.165C118.342 81.165 117.677 80.985 117.097 80.625C116.587 80.315 116.227 80.04 116.017 79.8L115.882 79.635L117.052 78.015ZM127.595 81.165C126.695 81.165 125.935 80.89 125.315 80.34C124.705 79.79 124.4 79.11 124.4 78.3L124.25 70.95L126.41 70.575L126.17 77.145C126.17 77.845 126.33 78.39 126.65 78.78C126.98 79.17 127.485 79.365 128.165 79.365C128.845 79.365 129.335 79.175 129.635 78.795C129.935 78.415 130.085 77.76 130.085 76.83L129.905 70.95L132.005 70.575L131.84 77.175C131.84 78.355 131.445 79.315 130.655 80.055C129.865 80.795 128.845 81.165 127.595 81.165ZM137.276 81.165C136.566 81.165 135.541 81.11 134.201 81L134.381 77.355L134.201 70.65H138.206C139.556 70.65 140.611 71.055 141.371 71.865C142.131 72.675 142.511 73.8 142.511 75.24C142.511 77.06 142.041 78.505 141.101 79.575C140.161 80.635 138.886 81.165 137.276 81.165ZM137.666 72.27C137.006 72.27 136.541 72.275 136.271 72.285L136.121 77.1L136.226 79.53C137.066 79.59 137.631 79.62 137.921 79.62C138.711 79.62 139.331 79.3 139.781 78.66C140.241 78.02 140.471 77.09 140.471 75.87C140.471 74.65 140.246 73.745 139.796 73.155C139.356 72.565 138.646 72.27 137.666 72.27ZM148.606 70.575L148.441 75.465L152.266 70.605L153.796 71.625L150.346 75.63L154.006 79.965L152.086 81.165L148.426 75.99L148.396 77.1L148.576 81H146.476L146.656 77.355L146.476 70.95L148.606 70.575ZM156.318 81C155.728 81 155.243 80.815 154.863 80.445C154.493 80.065 154.308 79.56 154.308 78.93C154.308 78.29 154.598 77.74 155.178 77.28C155.758 76.81 156.463 76.575 157.293 76.575H158.313V76.32C158.313 75.83 158.213 75.495 158.013 75.315C157.813 75.135 157.438 75.045 156.888 75.045C156.658 75.045 156.383 75.095 156.063 75.195C155.753 75.285 155.403 75.43 155.013 75.63L154.578 74.445C155.008 74.145 155.528 73.875 156.138 73.635C156.758 73.395 157.268 73.275 157.668 73.275C159.238 73.275 160.023 74.035 160.023 75.555V78.495C160.023 79.055 160.198 79.68 160.548 80.37L158.958 81.045C158.708 80.565 158.523 80.135 158.403 79.755C157.853 80.585 157.158 81 156.318 81ZM156.948 79.47C157.348 79.47 157.803 79.265 158.313 78.855V77.85C157.783 77.73 157.353 77.67 157.023 77.67C156.393 77.67 156.078 77.95 156.078 78.51C156.078 78.8 156.158 79.035 156.318 79.215C156.478 79.385 156.688 79.47 156.948 79.47ZM163.649 81C163.109 81 162.669 80.825 162.329 80.475C161.999 80.115 161.834 79.645 161.834 79.065L161.924 77.34L161.759 73.74L163.769 73.365L163.574 77.925C163.574 78.355 163.649 78.67 163.799 78.87C163.959 79.07 164.209 79.17 164.549 79.17C164.889 79.17 165.359 79 165.959 78.66V77.76L165.794 73.815L167.819 73.44L167.639 77.19L167.654 78.42C167.654 79.06 167.819 79.705 168.149 80.355L166.589 81.045C166.259 80.395 166.059 79.875 165.989 79.485C165.089 80.495 164.309 81 163.649 81ZM169.331 73.755L171.146 73.365C171.236 74.135 171.296 74.865 171.326 75.555C172.236 74.145 173.091 73.44 173.891 73.44L173.726 75.78C173.146 75.78 172.686 75.835 172.346 75.945C172.016 76.045 171.676 76.25 171.326 76.56V77.1L171.491 80.625L169.481 81L169.661 77.355C169.621 76.015 169.511 74.815 169.331 73.755Z" fill="white"/>
<g clip-path="url(#clip0_633_532)">
<path d="M3.75 64.3205C3.75 65.667 4.83399 66.75 6.18164 66.75H19.834C21.1816 66.75 22.2656 65.6572 22.2656 64.3205V62.7301H3.75V64.3205Z" fill="black"/>
<path d="M13.0078 52.9437L5.45898 43.6549H3.75V61.3641H22.2656V43.6549H20.5566L13.0078 52.9437Z" fill="black"/>
<path d="M4.05273 39.7521L7.2168 43.6549L12.998 50.7776L18.7793 43.6549L21.9434 39.7521C21.9727 39.7228 21.9922 39.6935 22.0215 39.6643C23.877 37.5567 25 34.7857 25 31.7512C25 25.1262 19.6289 19.75 12.998 19.75C6.36719 19.75 0.996094 25.1262 0.996094 31.7512C0.996094 34.7857 2.11914 37.547 3.97461 39.6643C4.00391 39.6935 4.0332 39.7228 4.05273 39.7521ZM13.0078 26.6678C15.8203 26.6678 18.0957 28.9412 18.0957 31.7512C18.0957 34.5613 15.8203 36.8347 13.0078 36.8347C10.1953 36.8347 7.91992 34.5613 7.91992 31.7512C7.91992 28.951 10.1953 26.6678 13.0078 26.6678Z" fill="white"/>
</g>
<path d="M48.9688 55.4844V55.7812C48.9479 56.6562 48.8542 57.5625 48.6875 58.5C48.5312 59.4375 48.3073 60.375 48.0156 61.3125C47.724 62.25 47.375 63.1771 46.9688 64.0938C46.5625 65.0104 46.1042 65.8854 45.5938 66.7188C45.0938 67.5625 44.5521 68.349 43.9688 69.0781C43.3854 69.8177 42.7708 70.4688 42.125 71.0312L39.7969 69.6875C40.1615 69.0729 40.4896 68.401 40.7812 67.6719C41.0833 66.9531 41.3542 66.1979 41.5938 65.4062C41.8333 64.6146 42.0365 63.8021 42.2031 62.9688C42.3802 62.1354 42.526 61.3073 42.6406 60.4844C42.7552 59.6615 42.8385 58.8542 42.8906 58.0625C42.9531 57.2604 42.9844 56.5 42.9844 55.7812C42.9844 55.2188 42.9792 54.5833 42.9688 53.875C42.9688 53.1562 42.9271 52.4271 42.8438 51.6875C42.7708 50.9479 42.6458 50.2292 42.4688 49.5312C42.2917 48.8229 42.026 48.1927 41.6719 47.6406C41.3281 47.0885 40.8802 46.6458 40.3281 46.3125C39.7865 45.9792 39.1094 45.8125 38.2969 45.8125C37.5781 45.8125 36.9583 45.9375 36.4375 46.1875C35.9271 46.4271 35.4896 46.7552 35.125 47.1719C34.7708 47.5781 34.4844 48.0521 34.2656 48.5938C34.0573 49.1354 33.8906 49.7083 33.7656 50.3125C33.651 50.9062 33.5729 51.5104 33.5312 52.125C33.5 52.7292 33.4844 53.3021 33.4844 53.8438V58.2031H40.2188V60.7812H33.4844V66.25H27.2812V54.8125C27.2812 53.1771 27.5417 51.6562 28.0625 50.25C28.5833 48.8438 29.3177 47.625 30.2656 46.5938C31.224 45.5521 32.3698 44.7396 33.7031 44.1562C35.0469 43.5625 36.5417 43.2656 38.1875 43.2656C39.3021 43.2656 40.3438 43.4271 41.3125 43.75C42.2917 44.0625 43.1823 44.5 43.9844 45.0625C44.7865 45.6146 45.5 46.276 46.125 47.0469C46.7604 47.8073 47.2865 48.6406 47.7031 49.5469C48.1302 50.4531 48.4531 51.4115 48.6719 52.4219C48.8906 53.4323 48.9896 54.4531 48.9688 55.4844ZM73.7344 60.1406C73.7344 60.776 73.6302 61.3698 73.4219 61.9219C73.2135 62.474 72.9271 62.9792 72.5625 63.4375C72.1979 63.8854 71.7708 64.2865 71.2812 64.6406C70.8021 64.9948 70.2812 65.2917 69.7188 65.5312C69.1667 65.7708 68.5938 65.9531 68 66.0781C67.4062 66.1927 66.8229 66.25 66.25 66.25H53.0156V43.75H65.1094C65.6406 43.75 66.1979 43.7917 66.7812 43.875C67.3646 43.9479 67.9323 44.0677 68.4844 44.2344C69.0469 44.401 69.5781 44.6198 70.0781 44.8906C70.5885 45.1615 71.0312 45.4948 71.4062 45.8906C71.7917 46.276 72.0938 46.724 72.3125 47.2344C72.5417 47.7448 72.6562 48.3281 72.6562 48.9844C72.6562 49.6094 72.5312 50.1771 72.2812 50.6875C72.0312 51.1979 71.6927 51.6562 71.2656 52.0625C70.849 52.4583 70.3646 52.8125 69.8125 53.125C69.2708 53.4271 68.6979 53.6927 68.0938 53.9219C68.8542 54.1302 69.5729 54.4062 70.25 54.75C70.9375 55.0938 71.5365 55.5156 72.0469 56.0156C72.5677 56.5156 72.9792 57.1094 73.2812 57.7969C73.5833 58.474 73.7344 59.2552 73.7344 60.1406ZM66.3594 49.5312C66.3594 48.2604 66.0208 47.3333 65.3438 46.75C64.6771 46.1667 63.724 45.875 62.4844 45.875H59.2188V53.1719H61.9531C62.5156 53.1719 63.0625 53.1042 63.5938 52.9688C64.125 52.8229 64.5938 52.6042 65 52.3125C65.4167 52.0104 65.7448 51.6302 65.9844 51.1719C66.2344 50.7135 66.3594 50.1667 66.3594 49.5312ZM67.4531 59.75C67.4531 59.1354 67.375 58.5625 67.2188 58.0312C67.0625 57.4896 66.8229 57.026 66.5 56.6406C66.1771 56.2448 65.7708 55.9375 65.2812 55.7188C64.8021 55.4896 64.2344 55.375 63.5781 55.375H59.2188V64.0625H63.0312C63.6667 64.0625 64.2552 63.9583 64.7969 63.75C65.3385 63.5417 65.8073 63.25 66.2031 62.875C66.599 62.5 66.9062 62.0469 67.125 61.5156C67.3438 60.9844 67.4531 60.3958 67.4531 59.75ZM95.8906 59.375C95.8906 60.3438 95.7656 61.1979 95.5156 61.9375C95.276 62.6771 94.9323 63.3177 94.4844 63.8594C94.0469 64.401 93.526 64.8542 92.9219 65.2188C92.3177 65.5833 91.6562 65.875 90.9375 66.0938C90.2292 66.3125 89.474 66.4688 88.6719 66.5625C87.8802 66.6562 87.0729 66.7031 86.25 66.7031C85.1667 66.7031 84.1667 66.6198 83.25 66.4531C82.3333 66.2969 81.4688 66.0469 80.6562 65.7031C79.8542 65.349 79.0781 64.8958 78.3281 64.3438C77.5885 63.7917 76.849 63.1198 76.1094 62.3281L79.2969 59.0938C79.5885 59.8125 79.9896 60.4792 80.5 61.0938C81.0104 61.6979 81.5677 62.2188 82.1719 62.6562C82.7865 63.0938 83.4219 63.4375 84.0781 63.6875C84.7344 63.9375 85.3542 64.0625 85.9375 64.0625C86.625 64.0625 87.2708 64.0156 87.875 63.9219C88.4792 63.8177 89.0052 63.651 89.4531 63.4219C89.901 63.1927 90.25 62.8906 90.5 62.5156C90.7604 62.1302 90.8906 61.651 90.8906 61.0781C90.8906 60.6406 90.7917 60.2656 90.5938 59.9531C90.3958 59.6406 90.1354 59.375 89.8125 59.1562C89.5 58.9271 89.1406 58.7344 88.7344 58.5781C88.3281 58.4219 87.9115 58.2917 87.4844 58.1875C87.0677 58.0729 86.6562 57.974 86.25 57.8906C85.8438 57.7969 85.4844 57.7031 85.1719 57.6094C84.5573 57.4323 83.9167 57.2448 83.25 57.0469C82.5833 56.8385 81.9271 56.6042 81.2812 56.3438C80.6354 56.0833 80.0208 55.7865 79.4375 55.4531C78.8646 55.1094 78.3594 54.7083 77.9219 54.25C77.4844 53.7812 77.1354 53.2448 76.875 52.6406C76.6146 52.026 76.4844 51.3229 76.4844 50.5312C76.4844 49.5833 76.599 48.7448 76.8281 48.0156C77.0677 47.276 77.401 46.6354 77.8281 46.0938C78.2552 45.5521 78.7604 45.099 79.3438 44.7344C79.9271 44.3594 80.5677 44.0625 81.2656 43.8438C81.9635 43.6146 82.7031 43.4531 83.4844 43.3594C84.276 43.2552 85.0833 43.2031 85.9062 43.2031C87.0312 43.2031 88.0521 43.3073 88.9688 43.5156C89.8958 43.724 90.75 44.0208 91.5312 44.4062C92.3125 44.7917 93.026 45.2552 93.6719 45.7969C94.3281 46.3281 94.9427 46.9219 95.5156 47.5781L92.3281 50.8125C92.0781 50.0625 91.7292 49.3854 91.2812 48.7812C90.8438 48.1771 90.3542 47.6615 89.8125 47.2344C89.2708 46.7969 88.7031 46.4635 88.1094 46.2344C87.5156 45.9948 86.9427 45.875 86.3906 45.875C85.6719 45.875 85.0104 45.9271 84.4062 46.0312C83.8021 46.125 83.2812 46.2865 82.8438 46.5156C82.4167 46.7344 82.0833 47.0365 81.8438 47.4219C81.6042 47.7969 81.4844 48.2656 81.4844 48.8281C81.4844 49.276 81.5729 49.6562 81.75 49.9688C81.9271 50.2812 82.1615 50.5469 82.4531 50.7656C82.7552 50.9844 83.0938 51.1667 83.4688 51.3125C83.8438 51.4479 84.2292 51.5677 84.625 51.6719C85.0312 51.776 85.4271 51.8698 85.8125 51.9531C86.2083 52.026 86.5677 52.1094 86.8906 52.2031C87.5156 52.3802 88.1719 52.5677 88.8594 52.7656C89.5469 52.9635 90.224 53.1979 90.8906 53.4688C91.5573 53.7292 92.1927 54.0312 92.7969 54.375C93.401 54.7188 93.9323 55.1302 94.3906 55.6094C94.849 56.0781 95.2135 56.625 95.4844 57.25C95.7552 57.8646 95.8906 58.5729 95.8906 59.375ZM115.922 66.25H99.7656V43.75H115.922V46.625H105.969V53.5781H113.656V56.4375H105.969V63.375H115.922V66.25ZM122.641 66.25H119.766V43.75H123.797L137.469 59.2031V43.75H140.328V66.25H136.297L122.641 50.8125V66.25ZM163.859 59.375C163.859 60.3438 163.734 61.1979 163.484 61.9375C163.245 62.6771 162.901 63.3177 162.453 63.8594C162.016 64.401 161.495 64.8542 160.891 65.2188C160.286 65.5833 159.625 65.875 158.906 66.0938C158.198 66.3125 157.443 66.4688 156.641 66.5625C155.849 66.6562 155.042 66.7031 154.219 66.7031C153.135 66.7031 152.135 66.6198 151.219 66.4531C150.302 66.2969 149.438 66.0469 148.625 65.7031C147.823 65.349 147.047 64.8958 146.297 64.3438C145.557 63.7917 144.818 63.1198 144.078 62.3281L147.266 59.0938C147.557 59.8125 147.958 60.4792 148.469 61.0938C148.979 61.6979 149.536 62.2188 150.141 62.6562C150.755 63.0938 151.391 63.4375 152.047 63.6875C152.703 63.9375 153.323 64.0625 153.906 64.0625C154.594 64.0625 155.24 64.0156 155.844 63.9219C156.448 63.8177 156.974 63.651 157.422 63.4219C157.87 63.1927 158.219 62.8906 158.469 62.5156C158.729 62.1302 158.859 61.651 158.859 61.0781C158.859 60.6406 158.76 60.2656 158.562 59.9531C158.365 59.6406 158.104 59.375 157.781 59.1562C157.469 58.9271 157.109 58.7344 156.703 58.5781C156.297 58.4219 155.88 58.2917 155.453 58.1875C155.036 58.0729 154.625 57.974 154.219 57.8906C153.812 57.7969 153.453 57.7031 153.141 57.6094C152.526 57.4323 151.885 57.2448 151.219 57.0469C150.552 56.8385 149.896 56.6042 149.25 56.3438C148.604 56.0833 147.99 55.7865 147.406 55.4531C146.833 55.1094 146.328 54.7083 145.891 54.25C145.453 53.7812 145.104 53.2448 144.844 52.6406C144.583 52.026 144.453 51.3229 144.453 50.5312C144.453 49.5833 144.568 48.7448 144.797 48.0156C145.036 47.276 145.37 46.6354 145.797 46.0938C146.224 45.5521 146.729 45.099 147.312 44.7344C147.896 44.3594 148.536 44.0625 149.234 43.8438C149.932 43.6146 150.672 43.4531 151.453 43.3594C152.245 43.2552 153.052 43.2031 153.875 43.2031C155 43.2031 156.021 43.3073 156.938 43.5156C157.865 43.724 158.719 44.0208 159.5 44.4062C160.281 44.7917 160.995 45.2552 161.641 45.7969C162.297 46.3281 162.911 46.9219 163.484 47.5781L160.297 50.8125C160.047 50.0625 159.698 49.3854 159.25 48.7812C158.812 48.1771 158.323 47.6615 157.781 47.2344C157.24 46.7969 156.672 46.4635 156.078 46.2344C155.484 45.9948 154.911 45.875 154.359 45.875C153.641 45.875 152.979 45.9271 152.375 46.0312C151.771 46.125 151.25 46.2865 150.812 46.5156C150.385 46.7344 150.052 47.0365 149.812 47.4219C149.573 47.7969 149.453 48.2656 149.453 48.8281C149.453 49.276 149.542 49.6562 149.719 49.9688C149.896 50.2812 150.13 50.5469 150.422 50.7656C150.724 50.9844 151.062 51.1667 151.438 51.3125C151.812 51.4479 152.198 51.5677 152.594 51.6719C153 51.776 153.396 51.8698 153.781 51.9531C154.177 52.026 154.536 52.1094 154.859 52.2031C155.484 52.3802 156.141 52.5677 156.828 52.7656C157.516 52.9635 158.193 53.1979 158.859 53.4688C159.526 53.7292 160.161 54.0312 160.766 54.375C161.37 54.7188 161.901 55.1302 162.359 55.6094C162.818 56.0781 163.182 56.625 163.453 57.25C163.724 57.8646 163.859 58.5729 163.859 59.375ZM173.938 66.25H167.734V43.75H173.938V66.25Z" fill="white"/>
<defs>
<clipPath id="clip0_633_532">
<rect width="24.0039" height="47" fill="white" transform="translate(0.996094 19.75)"/>
</clipPath>
</defs>
</svg>
